  0
SECTION
  2
HEADER
  9
$ACADVER
  1
AC1014
  9
$HANDSEED
  5
FFFF
  9
$MEASUREMENT
 70
     1
  0
ENDSEC
  0
SECTION
  2
TABLES
  0
TABLE
  2
VPORT
  5
8
330
0
100
AcDbSymbolTable
 70
     4
  0
VPORT
  5
2E
330
8
100
AcDbSymbolTableRecord
100
AcDbViewportTableRecord
  2
*ACTIVE
 70
     0
 10
0.0
 20
0.0
 11
1.0
 21
1.0
 12
210.0
 22
148.5
 13
0.0
 23
0.0
 14
10.0
 24
10.0
 15
10.0
 25
10.0
 16
0.0
 26
0.0
 36
1.0
 17
0.0
 27
0.0
 37
0.0
 40
341.0
 41
1.24
 42
50.0
 43
0.0
 44
0.0
 50
0.0
 51
0.0
 71
     0
 72
   100
 73
     1
 74
     3
 75
     0
 76
     0
 77
     0
 78
     0
  0
ENDTAB
  0
TABLE
  2
LTYPE
  5
5
330
0
100
AcDbSymbolTable
 70
     1
  0
LTYPE
  5
14
330
5
100
AcDbSymbolTableRecord
100
AcDbLinetypeTableRecord
  2
BYBLOCK
 70
     0
  3

 72
    65
 73
     0
 40
0.0
  0
LTYPE
  5
15
330
5
100
AcDbSymbolTableRecord
100
AcDbLinetypeTableRecord
  2
BYLAYER
 70
     0
  3

 72
    65
 73
     0
 40
0.0
  0
LTYPE
  5
16
330
5
100
AcDbSymbolTableRecord
100
AcDbLinetypeTableRecord
  2
CONTINUOUS
 70
     0
  3
Solid line
 72
    65
 73
     0
 40
0.0
  0
ENDTAB
  0
TABLE
  2
LAYER
  5
2
100
AcDbSymbolTable
 70
2
  0
LAYER
  5
50
100
AcDbSymbolTableRecord
100
AcDbLayerTableRecord
  2
0
 70
0
  6
CONTINUOUS
  0
LAYER
  5
51
100
AcDbSymbolTableRecord
100
AcDbLayerTableRecord
  2
Calque_1
 70
0
  6
CONTINUOUS
  0
ENDTAB
  0
TABLE
  2
STYLE
  5
3
330
0
100
AcDbSymbolTable
 70
     1
  0
STYLE
  5
11
330
3
100
AcDbSymbolTableRecord
100
AcDbTextStyleTableRecord
  2
STANDARD
 70
     0
 40
0.0
 41
1.0
 50
0.0
 71
     0
 42
2.5
  3
txt
  4

  0
ENDTAB
  0
TABLE
  2
VIEW
  5
6
330
0
100
AcDbSymbolTable
 70
     0
  0
ENDTAB
  0
TABLE
  2
UCS
  5
7
330
0
100
AcDbSymbolTable
 70
     0
  0
ENDTAB
  0
TABLE
  2
APPID
  5
9
330
0
100
AcDbSymbolTable
 70
     2
  0
APPID
  5
12
330
9
100
AcDbSymbolTableRecord
100
AcDbRegAppTableRecord
  2
ACAD
 70
     0
  0
ENDTAB
  0
TABLE
  2
DIMSTYLE
  5
A
330
0
100
AcDbSymbolTable
 70
     1
  0
DIMSTYLE
105
27
330
A
100
AcDbSymbolTableRecord
100
AcDbDimStyleTableRecord
  2
ISO-25
 70
     0
  3

  4

  5

  6

  7

 40
1.0
 41
2.5
 42
0.625
 43
3.75
 44
1.25
 45
0.0
 46
0.0
 47
0.0
 48
0.0
140
2.5
141
2.5
142
0.0
143
0.03937007874016
144
1.0
145
0.0
146
1.0
147
0.625
 71
     0
 72
     0
 73
     0
 74
     0
 75
     0
 76
     0
 77
     1
 78
     8
170
     0
171
     3
172
     1
173
     0
174
     0
175
     0
176
     0
177
     0
178
     0
270
     2
271
     2
272
     2
273
     2
274
     3
340
11
275
     0
280
     0
281
     0
282
     0
283
     0
284
     8
285
     0
286
     0
287
     3
288
     0
  0
ENDTAB
  0
TABLE
  2
BLOCK_RECORD
  5
1
330
0
100
AcDbSymbolTable
 70
     1
  0
BLOCK_RECORD
  5
1F
330
1
100
AcDbSymbolTableRecord
100
AcDbBlockTableRecord
  2
*MODEL_SPACE
  0
BLOCK_RECORD
  5
1B
330
1
100
AcDbSymbolTableRecord
100
AcDbBlockTableRecord
  2
*PAPER_SPACE
  0
ENDTAB
  0
ENDSEC
  0
SECTION
  2
BLOCKS
  0
BLOCK
  5
20
330
1F
100
AcDbEntity
  8
0
100
AcDbBlockBegin
  2
*MODEL_SPACE
 70
     0
 10
0.0
 20
0.0
 30
0.0
  3
*MODEL_SPACE
  1

  0
ENDBLK
  5
21
330
1F
100
AcDbEntity
  8
0
100
AcDbBlockEnd
  0
BLOCK
  5
1C
330
1B
100
AcDbEntity
 67
     1
  8
0
100
AcDbBlockBegin
  2
*PAPER_SPACE
  1

  0
ENDBLK
  5
1D
330
1B
100
AcDbEntity
 67
     1
  8
0
100
AcDbBlockEnd
  0
ENDSEC
  0
SECTION
  2
ENTITIES
  0
LWPOLYLINE
  5
100
100
AcDbEntity
  8
Calque_1
 62
7
100
AcDbPolyline
 90
133
 70
0
 10
49.606282
 20
65.196737
 30
0.0
 10
47.290666
 20
65.106879
 30
0.0
 10
44.987185
 20
64.850910
 30
0.0
 10
42.705729
 20
64.429483
 30
0.0
 10
40.461800
 20
63.845490
 30
0.0
 10
38.264828
 20
63.101509
 30
0.0
 10
36.129583
 20
62.202784
 30
0.0
 10
33.659291
 20
62.202784
 30
0.0
 10
31.188787
 20
62.202784
 30
0.0
 10
28.717920
 20
62.202784
 30
0.0
 10
26.246863
 20
62.202784
 30
0.0
 10
23.777230
 20
62.202784
 30
0.0
 10
21.306381
 20
62.202784
 30
0.0
 10
18.835896
 20
62.202784
 30
0.0
 10
16.364855
 20
62.202784
 30
0.0
 10
13.892841
 20
62.202784
 30
0.0
 10
11.421417
 20
62.202784
 30
0.0
 10
8.953106
 20
62.202784
 30
0.0
 10
6.483195
 20
62.202784
 30
0.0
 10
4.803414
 20
61.984233
 30
0.0
 10
3.237895
 20
61.336743
 30
0.0
 10
1.893389
 20
60.302891
 30
0.0
 10
0.863228
 20
58.956718
 30
0.0
 10
0.217902
 20
57.389528
 30
0.0
 10
0.000000
 20
55.706712
 30
0.0
 10
0.000000
 20
52.974397
 30
0.0
 10
0.000000
 20
50.239672
 30
0.0
 10
0.000000
 20
47.505458
 30
0.0
 10
0.000000
 20
44.772633
 30
0.0
 10
0.000000
 20
42.039468
 30
0.0
 10
0.000000
 20
39.303099
 30
0.0
 10
0.000000
 20
36.568743
 30
0.0
 10
0.000000
 20
33.834813
 30
0.0
 10
0.000000
 20
31.101704
 30
0.0
 10
0.000000
 20
28.368737
 30
0.0
 10
0.000000
 20
25.634296
 30
0.0
 10
0.000000
 20
22.899572
 30
0.0
 10
0.000000
 20
20.166321
 30
0.0
 10
0.000000
 20
17.433014
 30
0.0
 10
0.000000
 20
14.697865
 30
0.0
 10
0.000000
 20
11.964983
 30
0.0
 10
0.000000
 20
9.228728
 30
0.0
 10
0.000000
 20
6.495789
 30
0.0
 10
0.217989
 20
4.812775
 30
0.0
 10
0.864184
 20
3.244224
 30
0.0
 10
1.896031
 20
1.897087
 30
0.0
 10
3.239546
 20
0.864907
 30
0.0
 10
4.803692
 20
0.218324
 30
0.0
 10
6.483195
 20
0.000000
 30
0.0
 10
9.359061
 20
0.000000
 30
0.0
 10
12.234233
 20
0.000000
 30
0.0
 10
15.107944
 20
0.000000
 30
0.0
 10
17.982768
 20
0.000000
 30
0.0
 10
20.858861
 20
0.000000
 30
0.0
 10
23.732346
 20
0.000000
 30
0.0
 10
26.607605
 20
0.000000
 30
0.0
 10
29.483785
 20
0.000000
 30
0.0
 10
32.358277
 20
0.000000
 30
0.0
 10
35.233937
 20
0.000000
 30
0.0
 10
38.109073
 20
0.000000
 30
0.0
 10
40.982837
 20
0.000000
 30
0.0
 10
43.856563
 20
0.000000
 30
0.0
 10
46.730937
 20
0.000000
 30
0.0
 10
49.606387
 20
0.000000
 30
0.0
 10
52.481333
 20
0.000000
 30
0.0
 10
55.356797
 20
0.000000
 30
0.0
 10
58.231500
 20
0.000000
 30
0.0
 10
61.105195
 20
0.000000
 30
0.0
 10
63.980365
 20
0.000000
 30
0.0
 10
66.855988
 20
0.000000
 30
0.0
 10
69.729301
 20
0.000000
 30
0.0
 10
72.604454
 20
0.000000
 30
0.0
 10
75.479505
 20
0.000000
 30
0.0
 10
78.355894
 20
0.000000
 30
0.0
 10
81.230023
 20
0.000000
 30
0.0
 10
84.103784
 20
0.000000
 30
0.0
 10
86.980329
 20
0.000000
 30
0.0
 10
89.854424
 20
0.000000
 30
0.0
 10
92.729370
 20
0.000000
 30
0.0
 10
94.409150
 20
0.218268
 30
0.0
 10
95.974668
 20
0.865701
 30
0.0
 10
97.319191
 20
1.899581
 30
0.0
 10
98.349352
 20
3.245669
 30
0.0
 10
98.994679
 20
4.812888
 30
0.0
 10
99.212598
 20
6.495789
 30
0.0
 10
99.212598
 20
9.228132
 30
0.0
 10
99.212598
 20
11.962857
 30
0.0
 10
99.212598
 20
14.697099
 30
0.0
 10
99.212598
 20
17.429896
 30
0.0
 10
99.212598
 20
20.163061
 30
0.0
 10
99.212598
 20
22.899430
 30
0.0
 10
99.212598
 20
25.633814
 30
0.0
 10
99.212598
 20
28.367717
 30
0.0
 10
99.212598
 20
31.100825
 30
0.0
 10
99.212598
 20
33.833764
 30
0.0
 10
99.212598
 20
36.568233
 30
0.0
 10
99.212598
 20
39.302986
 30
0.0
 10
99.212598
 20
42.036180
 30
0.0
 10
99.212598
 20
44.769515
 30
0.0
 10
99.212598
 20
47.504665
 30
0.0
 10
99.212598
 20
50.237518
 30
0.0
 10
99.212598
 20
52.973802
 30
0.0
 10
99.212598
 20
55.706712
 30
0.0
 10
98.994614
 20
57.389754
 30
0.0
 10
98.348403
 20
58.958334
 30
0.0
 10
97.316555
 20
60.305499
 30
0.0
 10
95.973024
 20
61.337679
 30
0.0
 10
94.408877
 20
61.984233
 30
0.0
 10
92.729375
 20
62.202501
 30
0.0
 10
90.257638
 20
62.202501
 30
0.0
 10
87.785694
 20
62.202501
 30
0.0
 10
85.313384
 20
62.202501
 30
0.0
 10
82.840901
 20
62.202501
 30
0.0
 10
80.369824
 20
62.202501
 30
0.0
 10
77.897531
 20
62.202501
 30
0.0
 10
75.425604
 20
62.202501
 30
0.0
 10
72.953121
 20
62.202501
 30
0.0
 10
70.479663
 20
62.202501
 30
0.0
 10
68.006798
 20
62.202501
 30
0.0
 10
65.537059
 20
62.202501
 30
0.0
 10
63.065707
 20
62.202501
 30
0.0
 10
60.931905
 20
63.100715
 30
0.0
 10
58.739102
 20
63.843591
 30
0.0
 10
56.496603
 20
64.427669
 30
0.0
 10
54.219597
 20
64.849011
 30
0.0
 10
51.917610
 20
65.105830
 30
0.0
 10
49.606288
 20
65.196850
 30
0.0
 10
49.606288
 20
65.196850
 30
0.0
 10
49.606288
 20
65.196850
 30
0.0
 10
49.606288
 20
65.196850
 30
0.0
 10
49.606288
 20
65.196850
 30
0.0
 10
49.606288
 20
65.196850
 30
0.0
 10
49.606288
 20
65.196850
 30
0.0
  0
LWPOLYLINE
  5
101
100
AcDbEntity
  8
Calque_1
 62
7
100
AcDbPolyline
 90
97
 70
0
 10
49.491655
 20
61.478249
 30
0.0
 10
52.334683
 20
61.446217
 30
0.0
 10
55.175017
 20
61.349556
 30
0.0
 10
58.013269
 20
61.183729
 30
0.0
 10
60.847639
 20
60.940517
 30
0.0
 10
63.671043
 20
60.605546
 30
0.0
 10
66.478037
 20
60.152258
 30
0.0
 10
67.795007
 20
59.883250
 30
0.0
 10
69.101600
 20
59.566082
 30
0.0
 10
70.389088
 20
59.183943
 30
0.0
 10
71.641879
 20
58.703244
 30
0.0
 10
72.808328
 20
58.040334
 30
0.0
 10
73.513939
 20
56.951008
 30
0.0
 10
73.510537
 20
56.931165
 30
0.0
 10
73.505435
 20
56.911323
 30
0.0
 10
73.500333
 20
56.891480
 30
0.0
 10
73.495230
 20
56.871638
 30
0.0
 10
73.488144
 20
56.848961
 30
0.0
 10
73.481057
 20
56.826283
 30
0.0
 10
73.493246
 20
56.767323
 30
0.0
 10
73.503734
 20
56.708929
 30
0.0
 10
73.510821
 20
56.650819
 30
0.0
 10
73.515923
 20
56.590441
 30
0.0
 10
73.519325
 20
56.532047
 30
0.0
 10
73.520246
 20
56.473087
 30
0.0
 10
73.520246
 20
56.051320
 30
0.0
 10
73.520246
 20
55.627625
 30
0.0
 10
73.520246
 20
55.204384
 30
0.0
 10
73.520246
 20
54.780746
 30
0.0
 10
73.520246
 20
54.358696
 30
0.0
 10
73.520246
 20
53.936192
 30
0.0
 10
73.467578
 20
53.530498
 30
0.0
 10
73.311985
 20
53.153178
 30
0.0
 10
73.064180
 20
52.829631
 30
0.0
 10
72.741784
 20
52.581600
 30
0.0
 10
72.365556
 20
52.425411
 30
0.0
 10
71.959842
 20
52.372403
 30
0.0
 10
69.462797
 20
52.372403
 30
0.0
 10
66.963543
 20
52.372403
 30
0.0
 10
64.464741
 20
52.372403
 30
0.0
 10
61.967242
 20
52.372403
 30
0.0
 10
59.469395
 20
52.372403
 30
0.0
 10
56.968662
 20
52.372403
 30
0.0
 10
54.469721
 20
52.372403
 30
0.0
 10
51.971233
 20
52.372403
 30
0.0
 10
49.473456
 20
52.372403
 30
0.0
 10
46.975819
 20
52.372403
 30
0.0
 10
44.476824
 20
52.372403
 30
0.0
 10
41.977536
 20
52.372403
 30
0.0
 10
39.479672
 20
52.372403
 30
0.0
 10
36.979254
 20
52.372403
 30
0.0
 10
34.480174
 20
52.372403
 30
0.0
 10
31.983214
 20
52.372403
 30
0.0
 10
29.483178
 20
52.372403
 30
0.0
 10
26.986236
 20
52.372403
 30
0.0
 10
26.581358
 20
52.425128
 30
0.0
 10
26.204728
 20
52.581033
 30
0.0
 10
25.881848
 20
52.829348
 30
0.0
 10
25.634307
 20
53.152384
 30
0.0
 10
25.478724
 20
53.529392
 30
0.0
 10
25.425878
 20
53.935880
 30
0.0
 10
25.425878
 20
54.357647
 30
0.0
 10
25.425878
 20
54.781313
 30
0.0
 10
25.425878
 20
55.204583
 30
0.0
 10
25.425878
 20
55.628192
 30
0.0
 10
25.425878
 20
56.050271
 30
0.0
 10
25.425878
 20
56.472746
 30
0.0
 10
25.427443
 20
56.543329
 30
0.0
 10
25.432658
 20
56.612778
 30
0.0
 10
25.441361
 20
56.683361
 30
0.0
 10
25.451792
 20
56.751959
 30
0.0
 10
25.465710
 20
56.821124
 30
0.0
 10
25.483087
 20
56.888872
 30
0.0
 10
25.479600
 20
56.900211
 30
0.0
 10
25.477862
 20
56.911550
 30
0.0
 10
25.476123
 20
56.922888
 30
0.0
 10
25.474385
 20
56.934227
 30
0.0
 10
25.472682
 20
56.945565
 30
0.0
 10
25.471117
 20
56.956904
 30
0.0
 10
26.177772
 20
58.047024
 30
0.0
 10
27.343594
 20
58.709367
 30
0.0
 10
28.597808
 20
59.190463
 30
0.0
 10
29.885417
 20
59.572517
 30
0.0
 10
31.190204
 20
59.889203
 30
0.0
 10
32.507016
 20
60.158211
 30
0.0
 10
35.312933
 20
60.611329
 30
0.0
 10
38.137329
 20
60.946469
 30
0.0
 10
40.970432
 20
61.189682
 30
0.0
 10
43.809080
 20
61.355509
 30
0.0
 10
46.649798
 20
61.452170
 30
0.0
 10
49.493401
 20
61.483918
 30
0.0
 10
49.493157
 20
61.483975
 30
0.0
 10
49.493157
 20
61.483975
 30
0.0
 10
49.493157
 20
61.483975
 30
0.0
 10
49.493157
 20
61.483975
 30
0.0
 10
49.493157
 20
61.483975
 30
0.0
 10
49.493157
 20
61.483975
 30
0.0
  0
ENDSEC
  0
SECTION
  2
OBJECTS
  0
DICTIONARY
  5
C
330
0
100
AcDbDictionary
  3
ACAD_GROUP
350
D
  3
ACAD_MLINESTYLE
350
17
  0
DICTIONARY
  5
D
330
C
100
AcDbDictionary
  0
DICTIONARY
  5
1A
330
C
100
AcDbDictionary
  0
DICTIONARY
  5
17
330
C
100
AcDbDictionary
  3
STANDARD
350
18
  0
DICTIONARY
  5
19
330
C
100
AcDbDictionary
  0
ENDSEC
  0
EOF
