  0
SECTION
  2
HEADER
  9
$ACADVER
  1
AC1014
  9
$HANDSEED
  5
FFFF
  9
$MEASUREMENT
 70
     1
  0
ENDSEC
  0
SECTION
  2
TABLES
  0
TABLE
  2
VPORT
  5
8
330
0
100
AcDbSymbolTable
 70
     4
  0
VPORT
  5
2E
330
8
100
AcDbSymbolTableRecord
100
AcDbViewportTableRecord
  2
*ACTIVE
 70
     0
 10
0.0
 20
0.0
 11
1.0
 21
1.0
 12
210.0
 22
148.5
 13
0.0
 23
0.0
 14
10.0
 24
10.0
 15
10.0
 25
10.0
 16
0.0
 26
0.0
 36
1.0
 17
0.0
 27
0.0
 37
0.0
 40
341.0
 41
1.24
 42
50.0
 43
0.0
 44
0.0
 50
0.0
 51
0.0
 71
     0
 72
   100
 73
     1
 74
     3
 75
     0
 76
     0
 77
     0
 78
     0
  0
ENDTAB
  0
TABLE
  2
LTYPE
  5
5
330
0
100
AcDbSymbolTable
 70
     1
  0
LTYPE
  5
14
330
5
100
AcDbSymbolTableRecord
100
AcDbLinetypeTableRecord
  2
BYBLOCK
 70
     0
  3

 72
    65
 73
     0
 40
0.0
  0
LTYPE
  5
15
330
5
100
AcDbSymbolTableRecord
100
AcDbLinetypeTableRecord
  2
BYLAYER
 70
     0
  3

 72
    65
 73
     0
 40
0.0
  0
LTYPE
  5
16
330
5
100
AcDbSymbolTableRecord
100
AcDbLinetypeTableRecord
  2
CONTINUOUS
 70
     0
  3
Solid line
 72
    65
 73
     0
 40
0.0
  0
ENDTAB
  0
TABLE
  2
LAYER
  5
2
100
AcDbSymbolTable
 70
2
  0
LAYER
  5
50
100
AcDbSymbolTableRecord
100
AcDbLayerTableRecord
  2
0
 70
0
  6
CONTINUOUS
  0
LAYER
  5
51
100
AcDbSymbolTableRecord
100
AcDbLayerTableRecord
  2
Calque_1
 70
0
  6
CONTINUOUS
  0
ENDTAB
  0
TABLE
  2
STYLE
  5
3
330
0
100
AcDbSymbolTable
 70
     1
  0
STYLE
  5
11
330
3
100
AcDbSymbolTableRecord
100
AcDbTextStyleTableRecord
  2
STANDARD
 70
     0
 40
0.0
 41
1.0
 50
0.0
 71
     0
 42
2.5
  3
txt
  4

  0
ENDTAB
  0
TABLE
  2
VIEW
  5
6
330
0
100
AcDbSymbolTable
 70
     0
  0
ENDTAB
  0
TABLE
  2
UCS
  5
7
330
0
100
AcDbSymbolTable
 70
     0
  0
ENDTAB
  0
TABLE
  2
APPID
  5
9
330
0
100
AcDbSymbolTable
 70
     2
  0
APPID
  5
12
330
9
100
AcDbSymbolTableRecord
100
AcDbRegAppTableRecord
  2
ACAD
 70
     0
  0
ENDTAB
  0
TABLE
  2
DIMSTYLE
  5
A
330
0
100
AcDbSymbolTable
 70
     1
  0
DIMSTYLE
105
27
330
A
100
AcDbSymbolTableRecord
100
AcDbDimStyleTableRecord
  2
ISO-25
 70
     0
  3

  4

  5

  6

  7

 40
1.0
 41
2.5
 42
0.625
 43
3.75
 44
1.25
 45
0.0
 46
0.0
 47
0.0
 48
0.0
140
2.5
141
2.5
142
0.0
143
0.03937007874016
144
1.0
145
0.0
146
1.0
147
0.625
 71
     0
 72
     0
 73
     0
 74
     0
 75
     0
 76
     0
 77
     1
 78
     8
170
     0
171
     3
172
     1
173
     0
174
     0
175
     0
176
     0
177
     0
178
     0
270
     2
271
     2
272
     2
273
     2
274
     3
340
11
275
     0
280
     0
281
     0
282
     0
283
     0
284
     8
285
     0
286
     0
287
     3
288
     0
  0
ENDTAB
  0
TABLE
  2
BLOCK_RECORD
  5
1
330
0
100
AcDbSymbolTable
 70
     1
  0
BLOCK_RECORD
  5
1F
330
1
100
AcDbSymbolTableRecord
100
AcDbBlockTableRecord
  2
*MODEL_SPACE
  0
BLOCK_RECORD
  5
1B
330
1
100
AcDbSymbolTableRecord
100
AcDbBlockTableRecord
  2
*PAPER_SPACE
  0
ENDTAB
  0
ENDSEC
  0
SECTION
  2
BLOCKS
  0
BLOCK
  5
20
330
1F
100
AcDbEntity
  8
0
100
AcDbBlockBegin
  2
*MODEL_SPACE
 70
     0
 10
0.0
 20
0.0
 30
0.0
  3
*MODEL_SPACE
  1

  0
ENDBLK
  5
21
330
1F
100
AcDbEntity
  8
0
100
AcDbBlockEnd
  0
BLOCK
  5
1C
330
1B
100
AcDbEntity
 67
     1
  8
0
100
AcDbBlockBegin
  2
*PAPER_SPACE
  1

  0
ENDBLK
  5
1D
330
1B
100
AcDbEntity
 67
     1
  8
0
100
AcDbBlockEnd
  0
ENDSEC
  0
SECTION
  2
ENTITIES
  0
LWPOLYLINE
  5
100
100
AcDbEntity
  8
Calque_1
 62
7
100
AcDbPolyline
 90
133
 70
0
 10
49.606282
 20
65.196737
 30
0.0
 10
47.290666
 20
65.106879
 30
0.0
 10
44.987185
 20
64.850910
 30
0.0
 10
42.705729
 20
64.429483
 30
0.0
 10
40.461800
 20
63.845490
 30
0.0
 10
38.264828
 20
63.101509
 30
0.0
 10
36.129583
 20
62.202784
 30
0.0
 10
33.659291
 20
62.202784
 30
0.0
 10
31.188787
 20
62.202784
 30
0.0
 10
28.717920
 20
62.202784
 30
0.0
 10
26.246863
 20
62.202784
 30
0.0
 10
23.777230
 20
62.202784
 30
0.0
 10
21.306381
 20
62.202784
 30
0.0
 10
18.835896
 20
62.202784
 30
0.0
 10
16.364855
 20
62.202784
 30
0.0
 10
13.892841
 20
62.202784
 30
0.0
 10
11.421417
 20
62.202784
 30
0.0
 10
8.953106
 20
62.202784
 30
0.0
 10
6.483195
 20
62.202784
 30
0.0
 10
4.803414
 20
61.984233
 30
0.0
 10
3.237895
 20
61.336743
 30
0.0
 10
1.893389
 20
60.302891
 30
0.0
 10
0.863228
 20
58.956718
 30
0.0
 10
0.217902
 20
57.389528
 30
0.0
 10
0.000000
 20
55.706712
 30
0.0
 10
0.000000
 20
52.974397
 30
0.0
 10
0.000000
 20
50.239672
 30
0.0
 10
0.000000
 20
47.505458
 30
0.0
 10
0.000000
 20
44.772633
 30
0.0
 10
0.000000
 20
42.039468
 30
0.0
 10
0.000000
 20
39.303099
 30
0.0
 10
0.000000
 20
36.568743
 30
0.0
 10
0.000000
 20
33.834813
 30
0.0
 10
0.000000
 20
31.101704
 30
0.0
 10
0.000000
 20
28.368737
 30
0.0
 10
0.000000
 20
25.634296
 30
0.0
 10
0.000000
 20
22.899572
 30
0.0
 10
0.000000
 20
20.166321
 30
0.0
 10
0.000000
 20
17.433014
 30
0.0
 10
0.000000
 20
14.697865
 30
0.0
 10
0.000000
 20
11.964983
 30
0.0
 10
0.000000
 20
9.228728
 30
0.0
 10
0.000000
 20
6.495789
 30
0.0
 10
0.217989
 20
4.812775
 30
0.0
 10
0.864184
 20
3.244224
 30
0.0
 10
1.896031
 20
1.897087
 30
0.0
 10
3.239546
 20
0.864907
 30
0.0
 10
4.803692
 20
0.218324
 30
0.0
 10
6.483195
 20
0.000000
 30
0.0
 10
9.359061
 20
0.000000
 30
0.0
 10
12.234233
 20
0.000000
 30
0.0
 10
15.107944
 20
0.000000
 30
0.0
 10
17.982768
 20
0.000000
 30
0.0
 10
20.858861
 20
0.000000
 30
0.0
 10
23.732346
 20
0.000000
 30
0.0
 10
26.607605
 20
0.000000
 30
0.0
 10
29.483785
 20
0.000000
 30
0.0
 10
32.358277
 20
0.000000
 30
0.0
 10
35.233937
 20
0.000000
 30
0.0
 10
38.109073
 20
0.000000
 30
0.0
 10
40.982837
 20
0.000000
 30
0.0
 10
43.856563
 20
0.000000
 30
0.0
 10
46.730937
 20
0.000000
 30
0.0
 10
49.606387
 20
0.000000
 30
0.0
 10
52.481333
 20
0.000000
 30
0.0
 10
55.356797
 20
0.000000
 30
0.0
 10
58.231500
 20
0.000000
 30
0.0
 10
61.105195
 20
0.000000
 30
0.0
 10
63.980365
 20
0.000000
 30
0.0
 10
66.855988
 20
0.000000
 30
0.0
 10
69.729301
 20
0.000000
 30
0.0
 10
72.604454
 20
0.000000
 30
0.0
 10
75.479505
 20
0.000000
 30
0.0
 10
78.355894
 20
0.000000
 30
0.0
 10
81.230023
 20
0.000000
 30
0.0
 10
84.103784
 20
0.000000
 30
0.0
 10
86.980329
 20
0.000000
 30
0.0
 10
89.854424
 20
0.000000
 30
0.0
 10
92.729370
 20
0.000000
 30
0.0
 10
94.409150
 20
0.218268
 30
0.0
 10
95.974668
 20
0.865701
 30
0.0
 10
97.319191
 20
1.899581
 30
0.0
 10
98.349352
 20
3.245669
 30
0.0
 10
98.994679
 20
4.812888
 30
0.0
 10
99.212598
 20
6.495789
 30
0.0
 10
99.212598
 20
9.228132
 30
0.0
 10
99.212598
 20
11.962857
 30
0.0
 10
99.212598
 20
14.697099
 30
0.0
 10
99.212598
 20
17.429896
 30
0.0
 10
99.212598
 20
20.163061
 30
0.0
 10
99.212598
 20
22.899430
 30
0.0
 10
99.212598
 20
25.633814
 30
0.0
 10
99.212598
 20
28.367717
 30
0.0
 10
99.212598
 20
31.100825
 30
0.0
 10
99.212598
 20
33.833764
 30
0.0
 10
99.212598
 20
36.568233
 30
0.0
 10
99.212598
 20
39.302986
 30
0.0
 10
99.212598
 20
42.036180
 30
0.0
 10
99.212598
 20
44.769515
 30
0.0
 10
99.212598
 20
47.504665
 30
0.0
 10
99.212598
 20
50.237518
 30
0.0
 10
99.212598
 20
52.973802
 30
0.0
 10
99.212598
 20
55.706712
 30
0.0
 10
98.994614
 20
57.389754
 30
0.0
 10
98.348403
 20
58.958334
 30
0.0
 10
97.316555
 20
60.305499
 30
0.0
 10
95.973024
 20
61.337679
 30
0.0
 10
94.408877
 20
61.984233
 30
0.0
 10
92.729375
 20
62.202501
 30
0.0
 10
90.257638
 20
62.202501
 30
0.0
 10
87.785694
 20
62.202501
 30
0.0
 10
85.313384
 20
62.202501
 30
0.0
 10
82.840901
 20
62.202501
 30
0.0
 10
80.369824
 20
62.202501
 30
0.0
 10
77.897531
 20
62.202501
 30
0.0
 10
75.425604
 20
62.202501
 30
0.0
 10
72.953121
 20
62.202501
 30
0.0
 10
70.479663
 20
62.202501
 30
0.0
 10
68.006798
 20
62.202501
 30
0.0
 10
65.537059
 20
62.202501
 30
0.0
 10
63.065707
 20
62.202501
 30
0.0
 10
60.931905
 20
63.100715
 30
0.0
 10
58.739102
 20
63.843591
 30
0.0
 10
56.496603
 20
64.427669
 30
0.0
 10
54.219597
 20
64.849011
 30
0.0
 10
51.917610
 20
65.105830
 30
0.0
 10
49.606288
 20
65.196850
 30
0.0
 10
49.606288
 20
65.196850
 30
0.0
 10
49.606288
 20
65.196850
 30
0.0
 10
49.606288
 20
65.196850
 30
0.0
 10
49.606288
 20
65.196850
 30
0.0
 10
49.606288
 20
65.196850
 30
0.0
 10
49.606288
 20
65.196850
 30
0.0
  0
LWPOLYLINE
  5
101
100
AcDbEntity
  8
Calque_1
 62
7
100
AcDbPolyline
 90
97
 70
0
 10
50.708869
 20
60.628422
 30
0.0
 10
53.551896
 20
60.596391
 30
0.0
 10
56.392231
 20
60.499729
 30
0.0
 10
59.230483
 20
60.333902
 30
0.0
 10
62.064853
 20
60.090690
 30
0.0
 10
64.888257
 20
59.755691
 30
0.0
 10
67.695250
 20
59.302431
 30
0.0
 10
69.012221
 20
59.033424
 30
0.0
 10
70.318814
 20
58.716255
 30
0.0
 10
71.606302
 20
58.334088
 30
0.0
 10
72.859093
 20
57.853417
 30
0.0
 10
74.025541
 20
57.190507
 30
0.0
 10
74.731153
 20
56.101181
 30
0.0
 10
74.727751
 20
56.081339
 30
0.0
 10
74.722649
 20
56.061496
 30
0.0
 10
74.717546
 20
56.041654
 30
0.0
 10
74.712444
 20
56.021811
 30
0.0
 10
74.705357
 20
55.999134
 30
0.0
 10
74.698271
 20
55.976457
 30
0.0
 10
74.710460
 20
55.917496
 30
0.0
 10
74.720948
 20
55.859102
 30
0.0
 10
74.728035
 20
55.800992
 30
0.0
 10
74.733137
 20
55.740614
 30
0.0
 10
74.736539
 20
55.682220
 30
0.0
 10
74.737460
 20
55.623260
 30
0.0
 10
74.737460
 20
55.201493
 30
0.0
 10
74.737460
 20
54.777798
 30
0.0
 10
74.737460
 20
54.354557
 30
0.0
 10
74.737460
 20
53.930920
 30
0.0
 10
74.737460
 20
53.508869
 30
0.0
 10
74.737460
 20
53.086365
 30
0.0
 10
74.684792
 20
52.680671
 30
0.0
 10
74.529198
 20
52.303351
 30
0.0
 10
74.281394
 20
51.979805
 30
0.0
 10
73.958998
 20
51.731773
 30
0.0
 10
73.582770
 20
51.575584
 30
0.0
 10
73.177055
 20
51.522576
 30
0.0
 10
70.680010
 20
51.522576
 30
0.0
 10
68.180757
 20
51.522576
 30
0.0
 10
65.681955
 20
51.522576
 30
0.0
 10
63.184456
 20
51.522576
 30
0.0
 10
60.686609
 20
51.522576
 30
0.0
 10
58.185876
 20
51.522576
 30
0.0
 10
55.686934
 20
51.522576
 30
0.0
 10
53.188447
 20
51.522576
 30
0.0
 10
50.690670
 20
51.522576
 30
0.0
 10
48.193033
 20
51.522576
 30
0.0
 10
45.694037
 20
51.522576
 30
0.0
 10
43.194750
 20
51.522576
 30
0.0
 10
40.696886
 20
51.522576
 30
0.0
 10
38.196468
 20
51.522576
 30
0.0
 10
35.697387
 20
51.522576
 30
0.0
 10
33.200427
 20
51.522576
 30
0.0
 10
30.700392
 20
51.522576
 30
0.0
 10
28.203449
 20
51.522576
 30
0.0
 10
27.798570
 20
51.575301
 30
0.0
 10
27.421940
 20
51.731206
 30
0.0
 10
27.099060
 20
51.979521
 30
0.0
 10
26.851519
 20
52.302557
 30
0.0
 10
26.695937
 20
52.679565
 30
0.0
 10
26.643090
 20
53.086054
 30
0.0
 10
26.643090
 20
53.507820
 30
0.0
 10
26.643090
 20
53.931487
 30
0.0
 10
26.643090
 20
54.354756
 30
0.0
 10
26.643090
 20
54.778365
 30
0.0
 10
26.643090
 20
55.200444
 30
0.0
 10
26.643090
 20
55.622920
 30
0.0
 10
26.644655
 20
55.693502
 30
0.0
 10
26.649871
 20
55.762951
 30
0.0
 10
26.658573
 20
55.833534
 30
0.0
 10
26.669004
 20
55.902132
 30
0.0
 10
26.682922
 20
55.971298
 30
0.0
 10
26.700299
 20
56.039046
 30
0.0
 10
26.696812
 20
56.050384
 30
0.0
 10
26.695074
 20
56.061723
 30
0.0
 10
26.693336
 20
56.073061
 30
0.0
 10
26.691597
 20
56.084400
 30
0.0
 10
26.689894
 20
56.095739
 30
0.0
 10
26.688329
 20
56.107077
 30
0.0
 10
27.394984
 20
57.197197
 30
0.0
 10
28.560807
 20
57.859540
 30
0.0
 10
29.815021
 20
58.340636
 30
0.0
 10
31.102631
 20
58.722690
 30
0.0
 10
32.407418
 20
59.039376
 30
0.0
 10
33.724230
 20
59.308384
 30
0.0
 10
36.530147
 20
59.761502
 30
0.0
 10
39.354542
 20
60.096643
 30
0.0
 10
42.187646
 20
60.339855
 30
0.0
 10
45.026294
 20
60.505682
 30
0.0
 10
47.867012
 20
60.602343
 30
0.0
 10
50.710615
 20
60.634091
 30
0.0
 10
50.710371
 20
60.634120
 30
0.0
 10
50.710371
 20
60.634120
 30
0.0
 10
50.710371
 20
60.634120
 30
0.0
 10
50.710371
 20
60.634120
 30
0.0
 10
50.710371
 20
60.634120
 30
0.0
 10
50.710371
 20
60.634120
 30
0.0
  0
ENDSEC
  0
SECTION
  2
OBJECTS
  0
DICTIONARY
  5
C
330
0
100
AcDbDictionary
  3
ACAD_GROUP
350
D
  3
ACAD_MLINESTYLE
350
17
  0
DICTIONARY
  5
D
330
C
100
AcDbDictionary
  0
DICTIONARY
  5
1A
330
C
100
AcDbDictionary
  0
DICTIONARY
  5
17
330
C
100
AcDbDictionary
  3
STANDARD
350
18
  0
DICTIONARY
  5
19
330
C
100
AcDbDictionary
  0
ENDSEC
  0
EOF
