<?xml version="1.0" encoding="UTF-8" standalone="no"?>
<!-- Created with Inkscape (http://www.inkscape.org/) -->

<svg
   xmlns:dc="http://purl.org/dc/elements/1.1/"
   xmlns:cc="http://creativecommons.org/ns#"
   xmlns:rdf="http://www.w3.org/1999/02/22-rdf-syntax-ns#"
   xmlns:svg="http://www.w3.org/2000/svg"
   xmlns="http://www.w3.org/2000/svg"
   xmlns:sodipodi="http://sodipodi.sourceforge.net/DTD/sodipodi-0.dtd"
   xmlns:inkscape="http://www.inkscape.org/namespaces/inkscape"
   inkscape:version="0.92.3 (2405546, 2018-03-11)"
   sodipodi:docname="wolfcraft2.svg"
   id="svg8"
   version="1.1"
   viewBox="0 0 210 297"
   height="297mm"
   width="210mm">
  <sodipodi:namedview
     inkscape:window-maximized="1"
     inkscape:window-y="0"
     inkscape:window-x="0"
     inkscape:window-height="990"
     inkscape:window-width="1680"
     showgrid="false"
     inkscape:current-layer="layer1"
     inkscape:document-units="mm"
     inkscape:cy="260.98873"
     inkscape:cx="578.82918"
     inkscape:zoom="1.4"
     inkscape:pageshadow="2"
     inkscape:pageopacity="0.0"
     borderopacity="1.0"
     bordercolor="#666666"
     pagecolor="#ffffff"
     id="base" />
  <defs
     id="defs2">
    <inkscape:path-effect
       effect="bspline"
       id="path-effect1210"
       is_visible="true"
       weight="33.333333"
       steps="2"
       helper_size="0"
       apply_no_weight="true"
       apply_with_weight="true"
       only_selected="false" />
    <inkscape:path-effect
       effect="spiro"
       id="path-effect1206"
       is_visible="true" />
    <clipPath
       clipPathUnits="userSpaceOnUse"
       id="clipPath1188">
      <ellipse
         style="opacity:0.72000002;fill:#000000;fill-opacity:1;stroke:#000000;stroke-width:0.65241462;stroke-miterlimit:4;stroke-dasharray:none;stroke-opacity:1"
         id="ellipse1190"
         cx="-63.5"
         cy="98.184532"
         rx="262.48926"
         ry="62.161888" />
    </clipPath>
  </defs>
  <metadata
     id="metadata5">
    <rdf:RDF>
      <cc:Work
         rdf:about="">
        <dc:format>image/svg+xml</dc:format>
        <dc:type
           rdf:resource="http://purl.org/dc/dcmitype/StillImage" />
        <dc:title></dc:title>
      </cc:Work>
    </rdf:RDF>
  </metadata>
  <g
     inkscape:label="Calque 1"
     inkscape:groupmode="layer"
     id="layer1">
    <path
       style="opacity:1;fill:#000000;fill-opacity:1;stroke:none;stroke-width:0.07660307;stroke-miterlimit:4;stroke-dasharray:none;stroke-opacity:1"
       d="M147.22181 209.90096C146.776585451 209.902237562 146.33228141 209.919512717 145.889730422 209.952600853C145.445988086 209.985778061 145.004008253 210.034853502 144.564630211 210.099641069C144.124259626 210.164574989 143.6865026 210.245292102 143.252204119 210.341605036C142.818188385 210.437855267 142.387626694 210.549681019 141.961362385 210.676895288C141.53551435 210.803985324 141.113955307 210.946433836 140.697526127 211.104054366C140.282720452 211.261060391 139.873004719 211.433120364 139.46921 211.62005C139.46921 211.62005 138.931949878 211.62005 138.048146483 211.62005C137.641569414 211.62005 137.161653866 211.62005 136.626967221 211.62005C136.186831782 211.62005 135.709583395 211.62005 135.205578531 211.62005C134.750979995 211.62005 134.274613607 211.62005 133.784078985 211.62005C133.321013323 211.62005 132.845321784 211.62005 132.363397451 211.62005C131.893556082 211.62005 131.417790541 211.62005 130.942025 211.62005C130.466326325 211.62005 129.99062765 211.62005 129.520850649 211.62005C129.03864579 211.62005 128.562680063 211.62005 128.099357652 211.62005C127.60862008 211.62005 127.132066322 211.62005 126.67730598 211.62005C126.173164551 211.62005 125.695806473 211.62005 125.255599183 211.62005C124.721410007 211.62005 124.241927937 211.62005 123.835679109 211.62005C122.952009179 211.62005 122.41484 211.62005 122.41484 211.62005C122.080400527 211.62005 121.756514557 211.663631145 121.448528032 211.745447323C121.129267013 211.830258554 120.827090811 211.956155404 120.54795422 212.117182888C120.264257325 212.280841107 120.004358996 212.480787208 119.774510674 212.71076955C119.544912663 212.940501435 119.345299245 213.200204177 119.18190146 213.483646536C119.02111026 213.762567313 118.895388457 214.064476342 118.810673625 214.383435862C118.728885601 214.691375667 118.68532 215.015208163 118.68532 215.34959C118.68532 215.34959 118.68532 215.92761823 118.68532 216.918320847C118.68532 217.363397865 118.68532 217.891764571 118.68532 218.488427919C118.68532 218.96986635 118.68532 219.495770174 118.68532 220.058263059C118.68532 220.554584603 118.68532 221.079392932 118.68532 221.627277236C118.68532 222.132166835 118.68532 222.656652785 118.68532 223.196500751C118.68532 223.707611564 118.68532 224.232492424 118.68532 224.767549847C118.68532 225.282495593 118.68532 225.806867248 118.68532 226.337461502C118.68532 226.855731625 118.68532 227.37993864 118.68532 227.9070973C118.68532 228.428237349 118.68532 228.952262031 118.68532 229.476287186C118.68532 230.000279978 118.68532 230.524273243 118.68532 231.045383355C118.68532 231.572648693 118.68532 232.096962367 118.68532 232.615337356C118.68532 233.146005824 118.68532 233.670450592 118.68532 234.185467045C118.68532 234.719895103 118.68532 235.244170723 118.68532 235.754713104C118.68532 236.294586142 118.68532 236.819102665 118.68532 237.324028589C118.68532 237.872395522 118.68532 238.397655915 118.68532 238.894386135C118.68532 239.456563613 118.68532 239.982197591 118.68532 240.46342578C118.68532 241.060443706 118.68532 241.589115772 118.68532 242.034429306C118.68532 243.025339579 118.68532 243.6035 118.68532 243.6035C118.68532 243.937939473 118.728900621 244.261825181 118.810715921 244.569811267C118.895526241 244.88907183 119.0214218 245.191247387 119.182447801 245.470383236C119.346104513 245.754079377 119.546048908 246.013976854 119.776029544 246.243824323C120.005759726 246.473421482 120.265460764 246.673034049 120.548901618 246.836431081C120.827820914 246.997221541 121.129728653 247.122942699 121.448687264 247.207657076C121.756626191 247.289444661 122.080458163 247.33301 122.41484 247.33301C122.41484 247.33301 123.009724903 247.33301 124.069214766 247.33301C124.534580053 247.33301 125.08958046 247.33301 125.723175985 247.33301C126.226471157 247.33301 126.779358931 247.33301 127.376305793 247.33301C127.895455064 247.33301 128.447927685 247.33301 129.030083911 247.33301C129.558069725 247.33301 130.110471964 247.33301 130.684575321 247.33301C131.217594069 247.33301 131.769319073 247.33301 132.337577253 247.33301C132.874756497 247.33301 133.42670992 247.33301 133.991601841 247.33301C134.531820873 247.33301 135.083872853 247.33301 135.64615228 247.33301C136.188316138 247.33301 136.739988759 247.33301 137.299730862 247.33301C137.843960088 247.33301 138.395817713 247.33301 138.953980839 247.33301C139.499680999 247.33301 140.051408218 247.33301 140.607926247 247.33301C141.154746962 247.33301 141.706192982 247.33301 142.261091563 247.33301C142.809146222 247.33301 143.360568802 247.33301 143.914229419 247.33301C144.463565153 247.33301 145.015104096 247.33301 145.567742636 247.33301C146.118390466 247.33301 146.670129986 247.33301 147.221869466 247.33301C147.773514919 247.33301 148.325160333 247.33301 148.875714537 247.33301C149.428560289 247.33301 149.980305728 247.33301 150.529846002 247.33301C151.083696395 247.33301 151.635306897 247.33301 152.183546454 247.33301C152.738433188 247.33301 153.289866738 247.33301 153.83667441 247.33301C154.393200734 247.33301 154.944935283 247.33301 155.490641714 247.33301C156.04879782 247.33301 156.600647621 247.33301 157.144868215 247.33301C157.704378409 247.33301 158.255824696 247.33301 158.797769512 247.33301C159.359844924 247.33301 159.911699888 247.33301 160.451730622 247.33301C161.016577953 247.33301 161.568489339 247.33301 162.105629581 247.33301C162.674480295 247.33301 163.226764331 247.33301 163.760301896 247.33301C164.334003328 247.33301 164.886029646 247.33301 165.413670792 247.33301C165.995595463 247.33301 166.54785939 247.33301 167.066827085 247.33301C167.664412598 247.33301 168.217849752 247.33301 168.721587922 247.33301C169.354950122 247.33301 169.909744978 247.33301 170.374939739 247.33301C171.434095172 247.33301 172.02878 247.33301 172.02878 247.33301C172.363217854 247.33301 172.687103253 247.289429641 172.995089959 247.20761478C173.314351165 247.122804915 173.616528362 246.996910002 173.895666423 246.835884743C174.179364813 246.672228785 174.439265129 246.472285242 174.669115583 246.242305458C174.898715724 246.012576128 175.098331416 245.752875942 175.261731274 245.469435841C175.422524515 245.190517286 175.548248162 244.888610191 175.632964314 244.569652035C175.714753613 244.261713547 175.75832 243.937881837 175.75832 243.6035C175.75832 243.6035 175.75832 243.02547177 175.75832 242.034769153C175.75832 241.589692135 175.75832 241.061325429 175.75832 240.464662081C175.75832 239.98322365 175.75832 239.457319826 175.75832 238.894826941C175.75832 238.398505397 175.75832 237.873697068 175.75832 237.325812764C175.75832 236.820923165 175.75832 236.296437215 175.75832 235.756589249C175.75832 235.245478436 175.75832 234.720597576 175.75832 234.185540153C175.75832 233.670594407 175.75832 233.146222752 175.75832 232.615628498C175.75832 232.097358375 175.75832 231.57315136 175.75832 231.0459927C175.75832 230.524852651 175.75832 230.000827969 175.75832 229.476802814C175.75832 228.952810022 175.75832 228.428816757 175.75832 227.907706645C175.75832 227.380441307 175.75832 226.856127633 175.75832 226.337752644C175.75832 225.807084176 175.75832 225.282639408 175.75832 224.767622955C175.75832 224.233194897 175.75832 223.708919277 175.75832 223.198376896C175.75832 222.658503858 175.75832 222.133987335 175.75832 221.629061411C175.75832 221.080694478 175.75832 220.555434085 175.75832 220.058703865C175.75832 219.496526387 175.75832 218.970892409 175.75832 218.48966422C175.75832 217.892646294 175.75832 217.363974228 175.75832 216.918660694C175.75832 215.927750421 175.75832 215.34959 175.75832 215.34959C175.75832 215.015150527 175.714738593 214.691264033 175.632922018 214.38327663C175.548110376 214.0640147 175.42221297 213.761837207 175.261184926 213.482699133C175.097526139 213.199000731 174.897579466 212.939100696 174.667596699 212.709250668C174.437864388 212.479650954 174.178161366 212.280035832 173.89471902 212.116636542C173.615798256 211.955843861 173.313889524 211.830120769 172.994930727 211.745405027C172.68699162 211.663616125 172.363160219 211.62005 172.02878 211.62005C172.02878 211.62005 171.49120674 211.62005 170.606888228 211.62005C170.200074189 211.62005 169.719878925 211.62005 169.184880643 211.62005C168.744488674 211.62005 168.266962128 211.62005 167.762663509 211.62005C167.307800013 211.62005 166.831155979 211.62005 166.340335453 211.62005C165.876999897 211.62005 165.401031105 211.62005 164.918825887 211.62005C164.448710674 211.62005 163.972667837 211.62005 163.496625 211.62005C163.020649068 211.62005 162.544673136 211.62005 162.074622329 211.62005C161.592136421 211.62005 161.115893281 211.62005 160.652300827 211.62005C160.161277232 211.62005 159.684445718 211.62005 159.229420323 211.62005C158.724985059 211.62005 158.247348757 211.62005 157.806884896 211.62005C157.272384373 211.62005 156.79262284 211.62005 156.386137234 211.62005C155.501952263 211.62005 154.96447 211.62005 154.96447 211.62005C154.560943218 211.433242429 154.151502178 211.261284366 153.73697628 211.104359962C153.321334478 210.947013118 152.900580404 210.804780983 152.475550173 210.677849199C152.04955981 210.550630679 151.619273949 210.438781713 151.185534383 210.342489205C150.7520772 210.246259386 150.315170807 210.165565776 149.875655357 210.10059491C149.436569121 210.035687492 148.99487892 209.986472125 148.551422446 209.953134801C148.109694847 209.919927447 147.666214721 209.902474572 147.22181 209.90096C147.22181 209.90096 147.22181 209.90096 147.22181 209.90096C147.22181 209.90096 147.22181 209.90096 147.22181 209.90096C147.22181 209.90096 147.22181 209.90096 147.22181 209.90096C147.22181 209.90096 147.22181 209.90096 147.22181 209.90096C147.22181 209.90096 147.22181 209.90096 147.22181 209.90096C147.22181 209.90096 147.22181 209.90096 147.22181 209.90096M147.85608 212.52388C148.405481045 212.523880007 148.951508942 212.530033938 149.491559047 212.542138853C150.043370697 212.554507396 150.588941343 212.573088955 151.125492432 212.59766704C151.680405743 212.623086254 152.225671587 212.654919451 152.758216266 212.692927149C153.31690152 212.732800498 153.861586091 212.779469389 154.388721073 212.832657312C154.951564862 212.889448254 155.494400866 212.953671358 156.012908994 213.024990027C156.582417923 213.103323648 157.122577797 213.190217332 157.627664249 213.285225069C157.892136791 213.334972865 158.144782162 213.386529472 158.385259961 213.439740306C158.650789965 213.498494473 158.901485187 213.559265485 159.136887373 213.621845238C159.403626814 213.692755744 159.650730518 213.765988612 159.877531777 213.841241073C160.146733229 213.930561882 160.387331639 214.02272799 160.598212115 214.117233101C160.873261466 214.240495195 161.09775547 214.367736337 161.269220381 214.497833143C161.536705643 214.700784161 161.675139305 214.910684723 161.67513 215.12327C161.674400965 215.127090215 161.673627134 215.130910098 161.672808515 215.134729621C161.671979664 215.138596888 161.671104897 215.142463785 161.670184224 215.146330285C161.669186828 215.150518993 161.668135555 215.154707233 161.667030414 215.15889497C161.665994345 215.162820973 161.664910932 215.166746533 161.663780182 215.17067162C161.662536358 215.174989216 161.661235257 215.179306239 161.659876889 215.183622649C161.658518522 215.187939059 161.657102889 215.192254856 161.65563 215.19657C161.658208125 215.20777625 161.660585371 215.219062261 161.66275463 215.230424427C161.664877669 215.241544502 161.666801489 215.252737522 161.668519427 215.264000108C161.670204328 215.275046106 161.67169119 215.286159019 161.672973725 215.29733566C161.674296339 215.308861572 161.675401657 215.320455256 161.676282785 215.332113216C161.677123862 215.34324127 161.677760665 215.354427889 161.6781872 215.365670033C161.678613735 215.376912178 161.67883 215.388209847 161.67883 215.39956C161.67883 215.39956 161.67883 215.497106405 161.67883 215.64171133C161.67883 215.713301319 161.67883 215.796425221 161.67883 215.884956785C161.67883 215.963150191 161.67883 216.045562053 161.67883 216.127971414C161.67883 216.210459125 161.67883 216.292944331 161.67883 216.371194027C161.67883 216.459367226 161.67883 216.542162513 161.67883 216.613523543C161.67883 216.758356875 161.67883 216.85609 161.67883 216.85609C161.67883 216.93670375 161.668309811 217.014770759 161.648561747 217.088998242C161.628127548 217.165804718 161.597813101 217.23850023 161.559050156 217.305652507C161.519729551 217.373770865 161.471715614 217.436185346 161.416502781 217.491400969C161.361366264 217.546540273 161.29905074 217.594500606 161.231044458 217.633793179C161.163960316 217.672552959 161.091338699 217.702878448 161.014608134 217.723340602C160.940238509 217.74317315 160.862008905 217.75374 160.78122 217.75374C160.78122 217.75374 160.251931935 217.75374 159.344766776 217.75374C158.937219287 217.75374 158.453405215 217.75374 157.907053372 217.75374C157.466210517 217.75374 156.984651653 217.75374 156.469588971 217.75374C156.015117968 217.75374 155.534562226 217.75374 155.032876308 217.75374C154.57055972 217.75374 154.090299174 217.75374 153.595971958 217.75374C153.127958739 217.75374 152.647336581 217.75374 152.157395964 217.75374C151.685871178 217.75374 151.205715289 217.75374 150.719861499 217.75374C150.245292652 217.75374 149.765287521 217.75374 149.282579631 217.75374C148.805382854 217.75374 148.325544681 217.75374 147.845706074 217.75374C147.365897102 217.75374 146.886087697 217.75374 146.408918333 217.75374C145.92611276 217.75374 145.446009964 217.75374 144.971345093 217.75374C144.485423348 217.75374 144.005200511 217.75374 143.53361098 217.75374C143.044246659 217.75374 142.564178707 217.75374 142.096685987 217.75374C141.60183898 217.75374 141.121081883 217.75374 140.658303458 217.75374C140.156284535 217.75374 139.67542249 217.75374 139.22068156 217.75374C138.706025718 217.75374 138.224827679 217.75374 137.784283772 217.75374C137.237739294 217.75374 136.753766424 217.75374 136.346106214 217.75374C135.438982 217.75374 134.90972 217.75374 134.90972 217.75374C134.829104629 217.75374 134.751036525 217.743218497 134.676808344 217.723468274C134.600001145 217.703031841 134.527305337 217.672714254 134.460153049 217.633947784C134.392034679 217.594623603 134.329620479 217.546605692 134.274405281 217.491389031C134.219266402 217.436248691 134.171306638 217.373929487 134.132014632 217.305920211C134.09325541 217.238833114 134.062930477 217.166209209 134.042468735 217.089477539C134.022636586 217.015106844 134.01207 216.936877281 134.01207 216.85609C134.01207 216.85609 134.01207 216.758543595 134.01207 216.61393867C134.01207 216.542348681 134.01207 216.459224779 134.01207 216.370693215C134.01207 216.292499809 134.01207 216.210087947 134.01207 216.127678586C134.01207 216.045190875 134.01207 215.962705669 134.01207 215.884455973C134.01207 215.796282774 134.01207 215.713487487 134.01207 215.642126457C134.01207 215.497293125 134.01207 215.39956 134.01207 215.39956C134.01207 215.385975625 134.012374156 215.372467424 134.012974521 215.35904043C134.013571981 215.345678374 134.014462792 215.332396742 134.015639117 215.319200496C134.016850733 215.305608363 134.018365252 215.292106815 134.020174114 215.278701275C134.021954712 215.265505197 134.024020527 215.252402149 134.026363393 215.239397303C134.028762042 215.226082818 134.031451092 215.212871267 134.034421781 215.1997682C134.03739247 215.186665133 134.040644797 215.17367055 134.04417 215.16079C134.043642571 215.158446875 134.043132001 215.156103621 134.042638292 215.153760244C134.042237154 215.151856251 134.041847146 215.149952178 134.04146827 215.148048027C134.041057821 215.145985197 134.040660435 215.143922276 134.040276115 215.141859269C134.039843754 215.139538386 134.039427928 215.137217395 134.039028639 215.1348963C134.038695898 215.132962055 134.03837464 215.131027738 134.038064867 215.129093353C134.037755094 215.127158969 134.037456804 215.125224516 134.03717 215.12329C134.037160688 214.910545749 134.17580148 214.70049023 134.443679922 214.497397847C134.615119012 214.367421081 134.839491922 214.240296313 135.114331369 214.117143991C135.325431361 214.022552568 135.5663043 213.930304706 135.835832172 213.84090812C136.062661308 213.765673784 136.309785475 213.692458882 136.576538278 213.621566037C136.811639553 213.559084976 137.061987748 213.498407619 137.327126647 213.439741142C137.567578498 213.386537093 137.820194958 213.334986893 138.084635751 213.285245069C138.589537877 213.190272004 139.129487832 213.103407071 139.69876751 213.025095791C140.217449589 212.953744822 140.760479434 212.889494579 141.323532118 212.832682035C141.850433739 212.779517168 142.394869589 212.732865579 142.953295451 212.693003414C143.485914361 212.654983428 144.031260101 212.623139837 144.586257469 212.597712241C145.12287923 212.573126537 145.668524082 212.554539003 146.220412277 212.542166221C146.760569515 212.530056435 147.3067075 212.523900007 147.85622 212.5239C147.85622 212.5239 147.85608 212.52388 147.85608 212.52388C147.85608 212.52388 147.85608 212.52388 147.85608 212.52388C147.85608 212.52388 147.85608 212.52388 147.85608 212.52388C147.85608 212.52388 147.85608 212.52388 147.85608 212.52388C147.85608 212.52388 147.85608 212.52388 147.85608 212.52388C147.85608 212.52388 147.85608 212.52388 147.85608 212.52388"
       id="rect906"
       inkscape:connector-curvature="0" />
    <ellipse
       style="opacity:1;fill:#ff00ff;fill-opacity:1;stroke:none;stroke-width:1;stroke-miterlimit:4;stroke-dasharray:none;stroke-opacity:1"
       id="path5037"
       cx="-2373.6926"
       cy="99.43972"
       rx="150.88589"
       ry="191.36748" />
    <rect
       style="opacity:1;fill:#008080;fill-opacity:0.58585857;stroke:#999999;stroke-width:1;stroke-miterlimit:4;stroke-dasharray:none;stroke-opacity:1"
       id="rect895"
       width="529.16669"
       height="511.0238"
       x="-411.2381"
       y="1086.2144" />
    <path
       style="opacity:1;fill:#000000;fill-opacity:1;stroke:none;stroke-width:0.07660307;stroke-miterlimit:4;stroke-dasharray:none;stroke-opacity:1"
       d="m 229.9985,198.71999 a 18.581064,18.581064 0 0 0 -7.7526,1.71909 h -17.05437 c -2.06616,0 -3.72952,1.66338 -3.72952,3.72954 v 28.25391 c 0,2.06616 1.66336,3.72951 3.72952,3.72951 h 49.61394 c 2.06615,0 3.72954,-1.66335 3.72954,-3.72951 v -28.25391 c 0,-2.06616 -1.66339,-3.72954 -3.72954,-3.72954 h -17.06431 a 18.581064,18.581064 0 0 0 -7.74266,-1.71909 z m 0.63427,2.62292 a 13.819051,2.5993686 0 0 1 13.81905,2.59939 13.819051,2.5993686 0 0 1 -0.0195,0.0733 c 0.015,0.0652 0.0232,0.1331 0.0232,0.20299 v 1.45653 c 0,0.49728 -0.40032,0.89765 -0.89761,0.89765 h -25.8715 c -0.49729,0 -0.89765,-0.40037 -0.89765,-0.89765 v -1.45653 c 0,-0.0828 0.0113,-0.16277 0.0321,-0.23877 a 13.819051,2.5993686 0 0 1 -0.007,-0.0375 13.819051,2.5993686 0 0 1 13.81905,-2.59939 z"
       id="rect906-3"
       inkscape:connector-curvature="0" />
  </g>
</svg>
